<svg width="35" height="32" viewBox="0 0 35 32" fill="none" xmlns="http://www.w3.org/2000/svg">
<path d="M32.0899 19.1982L34.9624 6.55931C35.1698 5.64676 34.4762 4.77778 33.5403 4.77778H9.67337L9.11641 2.05494C8.97762 1.37627 8.38043 0.888885 7.68766 0.888885H1.4576C0.652176 0.888885 -0.000732422 1.54179 -0.000732422 2.34722V3.31944C-0.000732422 4.12487 0.652176 4.77778 1.4576 4.77778H5.70397L9.97251 25.6462C8.95131 26.2335 8.26316 27.3347 8.26316 28.5972C8.26316 30.4765 9.78663 32 11.6659 32C13.5452 32 15.0687 30.4765 15.0687 28.5972C15.0687 27.6448 14.677 26.7843 14.0464 26.1667H26.7854C26.1549 26.7843 25.7632 27.6448 25.7632 28.5972C25.7632 30.4765 27.2866 32 29.1659 32C31.0452 32 32.5687 30.4765 32.5687 28.5972C32.5687 27.25 31.7856 26.0857 30.6499 25.5344L30.9851 24.0593C31.1925 23.1468 30.4989 22.2778 29.563 22.2778H13.2529L12.8552 20.3333H30.6678C31.3488 20.3333 31.939 19.8622 32.0899 19.1982Z" fill="#212529"/>
</svg>
