<svg width="35" height="35" viewBox="0 0 35 35" fill="none" xmlns="http://www.w3.org/2000/svg">
<circle cx="17.5001" cy="17.5" r="16.5" stroke="#F8F9FA" stroke-width="2"/>
<mask id="path-2-inside-1_2001_138" fill="white">
<path d="M17.5 35C12.8587 35 8.40752 33.1563 5.12563 29.8744C1.84375 26.5925 0 22.1413 0 17.5C0 12.8587 1.84374 8.40752 5.12563 5.12563C8.40752 1.84375 12.8587 7.00815e-07 17.5 0L17.5 17.5L17.5 35Z"/>
</mask>
<path d="M17.5 35C12.8587 35 8.40752 33.1563 5.12563 29.8744C1.84375 26.5925 0 22.1413 0 17.5C0 12.8587 1.84374 8.40752 5.12563 5.12563C8.40752 1.84375 12.8587 7.00815e-07 17.5 0L17.5 17.5L17.5 35Z" fill="#F8F9FA" stroke="#F8F9FA" stroke-width="4" mask="url(#path-2-inside-1_2001_138)"/>
</svg>
