<svg width="18" height="25" viewBox="0 0 18 25" fill="none" xmlns="http://www.w3.org/2000/svg">
<path id="Vector" d="M17.2184 9.375H16.4371C16.0055 9.375 15.6559 9.72461 15.6559 10.1562V12.5C15.6559 16.1523 12.507 19.083 8.78137 18.7197C5.5343 18.4028 3.15588 15.4839 3.15588 12.2217V10.1562C3.15588 9.72461 2.80627 9.375 2.37463 9.375H1.59338C1.16174 9.375 0.812134 9.72461 0.812134 10.1562V12.1172C0.812134 16.4941 3.93567 20.396 8.23401 20.9888V22.6562H5.49963C5.06799 22.6562 4.71838 23.0059 4.71838 23.4375V24.2188C4.71838 24.6504 5.06799 25 5.49963 25H13.3121C13.7438 25 14.0934 24.6504 14.0934 24.2188V23.4375C14.0934 23.0059 13.7438 22.6562 13.3121 22.6562H10.5778V21.0073C14.7628 20.4331 17.9996 16.8408 17.9996 12.5V10.1562C17.9996 9.72461 17.65 9.375 17.2184 9.375ZM9.40588 17.1875C11.9948 17.1875 14.0934 15.0889 14.0934 12.5H9.92688C9.63928 12.5 9.40588 12.3252 9.40588 12.1094V11.3281C9.40588 11.1123 9.63928 10.9375 9.92688 10.9375H14.0934V9.375H9.92688C9.63928 9.375 9.40588 9.2002 9.40588 8.98438V8.20312C9.40588 7.9873 9.63928 7.8125 9.92688 7.8125H14.0934V6.25H9.92688C9.63928 6.25 9.40588 6.0752 9.40588 5.85938V5.07812C9.40588 4.8623 9.63928 4.6875 9.92688 4.6875H14.0934C14.0934 2.09863 11.9948 0 9.40588 0C6.81702 0 4.71838 2.09863 4.71838 4.6875V12.5C4.71838 15.0889 6.81702 17.1875 9.40588 17.1875Z" fill="#212529"/>
</svg>
