<svg width="40" height="41" viewBox="0 0 40 41" fill="none" xmlns="http://www.w3.org/2000/svg">
<path d="M40 20.5C40 31.5457 31.0457 40.5 20 40.5C8.9543 40.5 0 31.5457 0 20.5C0 9.4543 8.9543 0.5 20 0.5C31.0457 0.5 40 9.4543 40 20.5Z" fill="#D0E7FF"/>
<path d="M30.0379 16.7121H29.0909C28.5677 16.7121 28.1439 17.1359 28.1439 17.6591V20.5C28.1439 24.9271 24.3271 28.4794 19.8112 28.0391C15.8754 27.6549 12.9924 24.1168 12.9924 20.1626V17.6591C12.9924 17.1359 12.5687 16.7121 12.0455 16.7121H11.0985C10.5753 16.7121 10.1515 17.1359 10.1515 17.6591V20.036C10.1515 25.3414 13.9376 30.0709 19.1477 30.7894V32.8106H15.8333C15.3101 32.8106 14.8864 33.2344 14.8864 33.7576V34.7045C14.8864 35.2277 15.3101 35.6515 15.8333 35.6515H25.303C25.8262 35.6515 26.25 35.2277 26.25 34.7045V33.7576C26.25 33.2344 25.8262 32.8106 25.303 32.8106H21.9886V30.8119C27.0614 30.1159 30.9848 25.7616 30.9848 20.5V17.6591C30.9848 17.1359 30.5611 16.7121 30.0379 16.7121ZM20.5682 26.1818C23.7062 26.1818 26.25 23.638 26.25 20.5H21.1997C20.8511 20.5 20.5682 20.2881 20.5682 20.0265V19.0795C20.5682 18.8179 20.8511 18.6061 21.1997 18.6061H26.25V16.7121H21.1997C20.8511 16.7121 20.5682 16.5002 20.5682 16.2386V15.2917C20.5682 15.0301 20.8511 14.8182 21.1997 14.8182H26.25V12.9242H21.1997C20.8511 12.9242 20.5682 12.7124 20.5682 12.4508V11.5038C20.5682 11.2422 20.8511 11.0303 21.1997 11.0303H26.25C26.25 7.89228 23.7062 5.34848 20.5682 5.34848C17.4302 5.34848 14.8864 7.89228 14.8864 11.0303V20.5C14.8864 23.638 17.4302 26.1818 20.5682 26.1818Z" fill="#1D4A72"/>
</svg>
