<svg width="31" height="35" viewBox="0 0 31 35" fill="none" xmlns="http://www.w3.org/2000/svg">
<path d="M15.3118 35C17.7263 35 19.6848 33.0415 19.6848 30.625H10.9389C10.9389 33.0415 12.8974 35 15.3118 35ZM30.0357 24.7659C28.715 23.3468 26.2438 21.2119 26.2438 14.2188C26.2438 8.90723 22.5196 4.65527 17.4979 3.61211V2.1875C17.4979 0.97959 16.519 0 15.3118 0C14.1046 0 13.1257 0.97959 13.1257 2.1875V3.61211C8.104 4.65527 4.37978 8.90723 4.37978 14.2188C4.37978 21.2119 1.90859 23.3468 0.587889 24.7659C0.177733 25.2068 -0.00410313 25.7339 -0.000685159 26.25C0.00683437 27.3711 0.886619 28.4375 2.19365 28.4375H28.43C29.737 28.4375 30.6175 27.3711 30.6243 26.25C30.6277 25.7339 30.4459 25.2062 30.0357 24.7659Z" fill="#212529"/>
</svg>
