<svg width="36" height="28" viewBox="0 0 36 28" fill="none" xmlns="http://www.w3.org/2000/svg">
<path d="M35.5 11.1807V12.153C35.5 12.9584 34.8471 13.6113 34.0417 13.6113H33.5556L31.9688 24.7182C31.7636 26.1551 30.533 27.2224 29.0815 27.2224H6.91849C5.46702 27.2224 4.23643 26.1551 4.03111 24.7182L2.44444 13.6113H1.95833C1.15291 13.6113 0.5 12.9584 0.5 12.153V11.1807C0.5 10.3753 1.15291 9.7224 1.95833 9.7224H6.05023L12.5386 0.800983C13.1702 -0.0674542 14.3863 -0.259529 15.2548 0.372112C16.1233 1.00375 16.3153 2.21982 15.6837 3.08832L10.8588 9.7224H25.1412L20.3163 3.08826C19.6847 2.21982 19.8768 1.00369 20.7453 0.372051C21.6136 -0.25959 22.8298 -0.0675757 23.4615 0.800923L29.9498 9.7224H34.0417C34.8471 9.7224 35.5 10.3753 35.5 11.1807ZM19.4583 21.8752V15.0696C19.4583 14.2642 18.8054 13.6113 18 13.6113C17.1946 13.6113 16.5417 14.2642 16.5417 15.0696V21.8752C16.5417 22.6806 17.1946 23.3335 18 23.3335C18.8054 23.3335 19.4583 22.6806 19.4583 21.8752ZM26.2639 21.8752V15.0696C26.2639 14.2642 25.611 13.6113 24.8056 13.6113C24.0001 13.6113 23.3472 14.2642 23.3472 15.0696V21.8752C23.3472 22.6806 24.0001 23.3335 24.8056 23.3335C25.611 23.3335 26.2639 22.6806 26.2639 21.8752ZM12.6528 21.8752V15.0696C12.6528 14.2642 11.9999 13.6113 11.1944 13.6113C10.389 13.6113 9.73611 14.2642 9.73611 15.0696V21.8752C9.73611 22.6806 10.389 23.3335 11.1944 23.3335C11.9999 23.3335 12.6528 22.6806 12.6528 21.8752Z" fill="#1D4A72"/>
</svg>
