<svg width="25" height="23" viewBox="0 0 25 23" fill="none" xmlns="http://www.w3.org/2000/svg">
<path d="M24.3136 12.5189C25.2288 11.6036 25.2288 10.1196 24.3136 9.2043L16.5011 1.3918C15.5858 0.47652 14.1018 0.476471 13.1865 1.3918L0.686462 13.8918C-0.228821 14.8071 -0.228821 16.2911 0.686462 17.2064L5.37396 21.8939C5.81352 22.3334 6.40967 22.5803 7.03129 22.5803H24.4141C24.7377 22.5803 25 22.318 25 21.9944V20.0413C25 19.7177 24.7377 19.4553 24.4141 19.4553H17.3771L24.3136 12.5189ZM9.53685 9.46089L16.2445 16.1686L12.9577 19.4553H7.35492L3.44867 15.5491L9.53685 9.46089Z" fill="#007BFF"/>
</svg>
