<svg width="51" height="58" viewBox="0 0 51 58" fill="none" xmlns="http://www.w3.org/2000/svg">
<path d="M45.1429 25H42.4643V16.9643C42.4643 7.61161 34.8527 0 25.5 0C16.1473 0 8.53571 7.61161 8.53571 16.9643V25H5.85714C2.89955 25 0.5 27.3996 0.5 30.3571V51.7857C0.5 54.7433 2.89955 57.1429 5.85714 57.1429H45.1429C48.1004 57.1429 50.5 54.7433 50.5 51.7857V30.3571C50.5 27.3996 48.1004 25 45.1429 25ZM33.5357 25H17.4643V16.9643C17.4643 12.5335 21.0692 8.92857 25.5 8.92857C29.9308 8.92857 33.5357 12.5335 33.5357 16.9643V25Z" fill="#D0E7FF"/>
</svg>
