<svg width="60" height="47" viewBox="0 0 60 47" fill="none" xmlns="http://www.w3.org/2000/svg">
<path d="M43.3333 16.6667C43.3333 7.45833 33.6354 0 21.6667 0C9.69792 0 0 7.45833 0 16.6667C0 20.2396 1.46875 23.5312 3.95833 26.25C2.5625 29.3958 0.260417 31.8958 0.229167 31.9271C0 32.1667 -0.0625 32.5208 0.0729167 32.8333C0.208333 33.1458 0.5 33.3333 0.833333 33.3333C4.64583 33.3333 7.80208 32.0521 10.0729 30.7292C13.4271 32.3646 17.3958 33.3333 21.6667 33.3333C33.6354 33.3333 43.3333 25.875 43.3333 16.6667ZM56.0417 39.5833C58.5312 36.875 60 33.5729 60 30C60 23.0312 54.4271 17.0625 46.5312 14.5729C46.625 15.2604 46.6667 15.9583 46.6667 16.6667C46.6667 27.6979 35.4479 36.6667 21.6667 36.6667C20.5417 36.6667 19.4479 36.5833 18.3646 36.4688C21.6458 42.4583 29.3542 46.6667 38.3333 46.6667C42.6042 46.6667 46.5729 45.7083 49.9271 44.0625C52.1979 45.3854 55.3542 46.6667 59.1667 46.6667C59.5 46.6667 59.8021 46.4688 59.9271 46.1667C60.0625 45.8646 60 45.5104 59.7708 45.2604C59.7396 45.2292 57.4375 42.7396 56.0417 39.5833Z" fill="#D0E7FF"/>
</svg>
